<svg xmlns="http://www.w3.org/2000/svg" width="720" height="440" viewBox="0 0 720 440" font-family="-apple-system,Segoe UI,Helvetica,Arial,sans-serif">
<rect width="720" height="440" fill="#ffffff"/>
<text x="360.0" y="34" text-anchor="middle" font-size="20" font-weight="700" fill="#1a1a1a">Avg output tokens for equal content (Claude Opus 4.8)</text>
<line x1="70" y1="360.0" x2="690" y2="360.0" stroke="#e0e0e0" stroke-width="1"/>
<text x="60" y="364.0" text-anchor="end" font-size="12" fill="#666">0</text>
<line x1="70" y1="302.0" x2="690" y2="302.0" stroke="#e0e0e0" stroke-width="1"/>
<text x="60" y="306.0" text-anchor="end" font-size="12" fill="#666">200</text>
<line x1="70" y1="244.0" x2="690" y2="244.0" stroke="#e0e0e0" stroke-width="1"/>
<text x="60" y="248.0" text-anchor="end" font-size="12" fill="#666">400</text>
<line x1="70" y1="186.0" x2="690" y2="186.0" stroke="#e0e0e0" stroke-width="1"/>
<text x="60" y="190.0" text-anchor="end" font-size="12" fill="#666">600</text>
<line x1="70" y1="128.0" x2="690" y2="128.0" stroke="#e0e0e0" stroke-width="1"/>
<text x="60" y="132.0" text-anchor="end" font-size="12" fill="#666">800</text>
<line x1="70" y1="70.0" x2="690" y2="70.0" stroke="#e0e0e0" stroke-width="1"/>
<text x="60" y="74.0" text-anchor="end" font-size="12" fill="#666">1000</text>
<text x="18" y="215.0" text-anchor="middle" font-size="12" fill="#666" transform="rotate(-90 18 215.0)">output tokens</text>
<rect x="142.5" y="159.9" width="110" height="200.1" rx="4" fill="#2e7d32"/>
<text x="197.5" y="137.9" text-anchor="middle" font-size="18" font-weight="700" fill="#1a1a1a">690</text>
<text x="197.5" y="153.9" text-anchor="middle" font-size="12" fill="#666">1.00x (cheapest)</text>
<text x="197.5" y="386.0" text-anchor="middle" font-size="15" font-weight="600" fill="#1a1a1a">English</text>
<rect x="325.0" y="113.2" width="110" height="246.8" rx="4" fill="#ef6c00"/>
<text x="380.0" y="91.2" text-anchor="middle" font-size="18" font-weight="700" fill="#1a1a1a">851</text>
<text x="380.0" y="107.2" text-anchor="middle" font-size="12" fill="#666">1.23x</text>
<text x="380.0" y="386.0" text-anchor="middle" font-size="15" font-weight="600" fill="#1a1a1a">Japanese</text>
<rect x="507.5" y="102.5" width="110" height="257.5" rx="4" fill="#c62828"/>
<text x="562.5" y="80.5" text-anchor="middle" font-size="18" font-weight="700" fill="#1a1a1a">888</text>
<text x="562.5" y="96.5" text-anchor="middle" font-size="12" fill="#666">1.29x</text>
<text x="562.5" y="386.0" text-anchor="middle" font-size="15" font-weight="600" fill="#1a1a1a">Chinese</text>
<line x1="70" y1="360.0" x2="690" y2="360.0" stroke="#999" stroke-width="1.5"/>
<text x="360.0" y="422" text-anchor="middle" font-size="12" fill="#888">Same information content per summary (~280 English words). Lower = more efficient.</text>
</svg>